# xmcd CD database file
#
# Track frame offsets:
#	150
#	29397
#	42345
#	59020
#	68965
#	96780
#	158687
#	171310
#	188317
#
# Disc length: 2717 seconds
#
# Revision: 0
# Processed by: cddbd v1.4PL0 Copyright (c) Steve Scherf et al.
# Submitted via: CDex 1.50beta10
#
DISCID=730a9b09
DTITLE=Jack DeJohnette - Dave Holland - Time and Space
DYEAR=1973
DGENRE=Jazz
TTITLE0=Turned Around
TTITLE1=Farah's Song
TTITLE2=The Rain Forest
TTITLE3=Hegwineeway
TTITLE4=Lydia
TTITLE5=Papa Daddy Revisited
TTITLE6=Stride Vibes
TTITLE7=Outside - Inside Blues
TTITLE8=Time and Space
EXTD=YEAR: 1973
EXTT0=
EXTT1=
EXTT2=
EXTT3=
EXTT4=
EXTT5=
EXTT6=
EXTT7=
EXTT8=
PLAYORDER=
